<svg width="495" height="315" fill="none" xmlns="http://www.w3.org/2000/svg"><path d="M45 180H0c0 74.55 60.45 135 135 135v-45c-49.65 0-90-40.4-90-90zm405 0c0 49.6-40.35 90-90 90v45c74.55 0 135-60.45 135-135h-45zm-90-90V45c-26.9 0-51.9 7.85-72.95 21.45 3.5-6.4 5.45-13.7 5.45-21.45 0-24.85-20.15-45-45-45s-45 20.15-45 45c0 7.75 1.95 15.05 5.45 21.45C186.9 52.85 161.9 45 135 45v45c49.65 0 90 40.35 90 90h45c0-49.65 40.35-90 90-90zM247.5 65c-11.05 0-20-9-20-20 0-11.05 8.95-20 20-20s20 8.95 20 20c0 11-8.95 20-20 20z" fill="#006CFF"/><path d="M270 180h-45c0 27.6 8.25 53.25 22.5 74.6 6.35 9.6 13.95 18.35 22.5 25.95C293.9 302 325.4 315 360 315v-45c-49.65 0-90-40.4-90-90z" fill="#3F8CF2"/></svg>