<svg width="495" height="315" viewBox="0 0 495 315" fill="none" xmlns="http://www.w3.org/2000/svg">
<path d="M45 180H0C0 254.55 60.45 315 135 315V270C85.35 270 45 229.6 45 180Z" fill="#006CFF"/>
<path d="M450 180C450 229.6 409.65 270 360 270V315C434.55 315 495 254.55 495 180H450Z" fill="#006CFF"/>
<path d="M360 90V45C333.1 45 308.1 52.85 287.05 66.45C290.55 60.05 292.5 52.75 292.5 45C292.5 20.15 272.35 0 247.5 0C222.65 0 202.5 20.15 202.5 45C202.5 52.75 204.45 60.05 207.95 66.45C186.9 52.85 161.9 45 135 45V90C184.65 90 225 130.35 225 180H270C270 130.35 310.35 90 360 90ZM247.5 65C236.45 65 227.5 56 227.5 45C227.5 33.95 236.45 25 247.5 25C258.55 25 267.5 33.95 267.5 45C267.5 56 258.55 65 247.5 65Z" fill="#006CFF"/>
<path d="M270 180H225C225 207.6 233.25 233.25 247.5 254.6C253.85 264.2 261.45 272.95 270 280.55C293.9 302 325.4 315 360 315V270C310.35 270 270 229.6 270 180Z" fill="#3F8CF2"/>
</svg>